<svg width="55" height="58" viewBox="0 0 55 58" fill="none" xmlns="http://www.w3.org/2000/svg">
<g filter="url(#filter0_d_4_5)">
<g clip-path="url(#clip0_4_5)">
<path d="M8.41658 27.9985L24.5456 47.3534C25.9569 48.9663 27.6034 49.7727 29.4851 49.7727C31.1652 49.7727 32.6101 49.2687 33.8198 48.2606L47.8319 36.4663C49.176 35.2566 49.9488 33.7445 50.1505 31.93C50.3521 30.2499 49.848 28.6034 48.6384 26.9905L32.5093 7.63564C30.762 5.35069 28.4771 3.9058 25.6545 3.30096L11.6424 0.0751548C10.2983 -0.328071 9.02142 -0.0256516 7.81174 0.982413L6.09803 2.49451C5.08997 3.23376 4.58594 4.44343 4.58594 6.12354L5.39239 20.5389C5.72841 23.4287 6.73648 25.9152 8.41658 27.9985Z" fill="#F24E1E"/>
<ellipse cx="11.8613" cy="7.27539" rx="3.36914" ry="3.36914" fill="white"/>
<path d="M37.1079 24.3272C38.1122 25.5241 38.6776 26.7865 38.804 28.1146C38.9147 29.4239 38.616 30.7581 37.908 32.1171C37.2186 33.4604 36.1446 34.744 34.6858 35.968C33.9378 36.5957 33.1864 37.1625 32.4316 37.6683C31.6956 38.1584 30.9922 38.5734 30.3213 38.9133C29.6347 39.2345 28.99 39.4726 28.3873 39.6279L26.3629 37.2154C27.2873 36.9496 28.347 36.5225 29.5422 35.9339C30.7561 35.3297 31.896 34.5803 32.962 33.6858C33.9532 32.8541 34.6756 32.0249 35.1291 31.1981C35.5827 30.3714 35.7738 29.5737 35.7024 28.8049C35.631 28.0362 35.3207 27.3246 34.7715 26.6701C34.2223 26.0155 33.6191 25.5815 32.9619 25.368C32.3048 25.1546 31.4733 25.1512 30.4675 25.3578C29.4647 25.53 28.175 25.911 26.5985 26.5009C25.4715 26.9048 24.4316 27.2037 23.4789 27.3976C22.5292 27.5571 21.6431 27.5836 20.8207 27.477C19.9982 27.3704 19.2237 27.112 18.4971 26.7018C17.7892 26.276 17.1058 25.6704 16.4467 24.8849C15.5522 23.8189 15.0623 22.6843 14.9769 21.4812C14.8759 20.2593 15.1296 19.0425 15.7382 17.8308C16.3654 16.6034 17.3056 15.4639 18.5586 14.4125C19.662 13.4867 20.7581 12.7421 21.8471 12.1789C22.9361 11.6157 23.9959 11.1886 25.0264 10.8975L26.0534 13.7166C25.1104 13.998 24.1411 14.3811 23.1457 14.8658C22.1689 15.3349 21.241 15.9382 20.362 16.6757C19.5204 17.3819 18.9211 18.0919 18.5641 18.8058C18.207 19.5197 18.0766 20.2188 18.1727 20.903C18.2531 21.5685 18.5365 22.1912 19.023 22.7709C19.5879 23.4442 20.1989 23.8875 20.8561 24.101C21.5132 24.3144 22.3088 24.332 23.2428 24.1538C24.1768 23.9756 25.3588 23.6371 26.7887 23.1384C28.3278 22.5799 29.7113 22.2158 30.9392 22.0459C32.1701 21.8417 33.2815 21.913 34.2736 22.2597C35.2844 22.5907 36.2291 23.2799 37.1079 24.3272Z" fill="white"/>
</g>
</g>
<defs>
<filter id="filter0_d_4_5" x="0" y="0" width="54.7744" height="58" filterUnits="userSpaceOnUse" color-interpolation-filters="sRGB">
<feFlood flood-opacity="0" result="BackgroundImageFix"/>
<feColorMatrix in="SourceAlpha" type="matrix" values="0 0 0 0 0 0 0 0 0 0 0 0 0 0 0 0 0 0 127 0" result="hardAlpha"/>
<feOffset dy="4"/>
<feGaussianBlur stdDeviation="2"/>
<feComposite in2="hardAlpha" operator="out"/>
<feColorMatrix type="matrix" values="0 0 0 0 0 0 0 0 0 0 0 0 0 0 0 0 0 0 0.25 0"/>
<feBlend mode="normal" in2="BackgroundImageFix" result="effect1_dropShadow_4_5"/>
<feBlend mode="normal" in="SourceGraphic" in2="effect1_dropShadow_4_5" result="shape"/>
</filter>
<clipPath id="clip0_4_5">
<rect width="46.7744" height="50" fill="white" transform="translate(4)"/>
</clipPath>
</defs>
</svg>
