<svg width="479" height="512" viewBox="0 0 479 512" fill="none" xmlns="http://www.w3.org/2000/svg">
<g clip-path="url(#clip0_3_4)">
<path d="M45.2258 286.705L210.387 484.899C224.839 501.415 241.699 509.673 260.968 509.673C278.172 509.673 292.968 504.512 305.355 494.189L448.839 373.415C462.602 361.028 470.516 345.544 472.581 326.963C474.645 309.759 469.484 292.899 457.097 276.382L291.935 78.1889C274.043 54.7911 250.645 39.9954 221.742 33.8018L78.2581 0.769585C64.4946 -3.35945 51.4194 -0.262672 39.0323 10.0599L21.4839 25.5438C11.1613 33.1137 6 45.5008 6 62.7051L14.2581 210.318C17.6989 239.909 28.0215 265.372 45.2258 286.705Z" fill="#F24E1E"/>
<circle cx="80.5" cy="74.5" r="34.5" fill="white"/>
<path d="M339.025 249.108C349.309 261.364 355.098 274.292 356.393 287.891C357.527 301.298 354.468 314.96 347.218 328.876C340.159 342.632 329.16 355.776 314.223 368.31C306.563 374.738 298.869 380.542 291.14 385.721C283.603 390.74 276.4 394.989 269.53 398.47C262.499 401.758 255.898 404.197 249.726 405.787L228.996 381.083C238.462 378.362 249.314 373.988 261.552 367.961C273.982 361.773 285.655 354.1 296.571 344.94C306.721 336.424 314.118 327.932 318.762 319.466C323.407 311 325.364 302.832 324.633 294.96C323.902 287.089 320.724 279.802 315.1 273.099C309.476 266.396 303.299 261.952 296.57 259.766C289.841 257.581 281.327 257.545 271.027 259.661C260.759 261.424 247.552 265.326 231.409 271.366C219.868 275.503 209.219 278.563 199.464 280.549C189.739 282.183 180.665 282.453 172.244 281.362C163.822 280.27 155.891 277.624 148.45 273.424C141.202 269.064 134.203 262.862 127.454 254.819C118.295 243.903 113.278 232.285 112.404 219.965C111.369 207.453 113.968 194.993 120.199 182.585C126.622 170.016 136.249 158.348 149.08 147.582C160.378 138.101 171.603 130.477 182.755 124.71C193.906 118.942 204.758 114.568 215.311 111.588L225.827 140.456C216.171 143.337 206.245 147.26 196.052 152.224C186.049 157.027 176.548 163.205 167.547 170.757C158.929 177.988 152.792 185.259 149.136 192.569C145.48 199.88 144.144 207.038 145.128 214.044C145.951 220.859 148.854 227.235 153.835 233.172C159.62 240.066 165.877 244.606 172.606 246.792C179.335 248.977 187.482 249.158 197.046 247.333C206.611 245.508 218.714 242.042 233.356 236.935C249.117 231.216 263.284 227.487 275.857 225.748C288.462 223.657 299.843 224.386 310.002 227.937C320.352 231.326 330.026 238.383 339.025 249.108Z" fill="white"/>
</g>
<defs>
<clipPath id="clip0_3_4">
<rect width="478.97" height="512" fill="white"/>
</clipPath>
</defs>
</svg>
